<svg xmlns="http://www.w3.org/2000/svg" width="1000" height="720" viewBox="0 0 1000 720">
<rect width="1000" height="720" fill="#ffffff"/>
<rect x="83.0" y="83.0" width="274.0" height="37.1" rx="2" fill="#00b3b2"/>
<rect x="363.0" y="83.0" width="274.0" height="37.1" rx="2" fill="#be9fce"/>
<rect x="643.0" y="83.0" width="274.0" height="37.1" rx="2" fill="#dba0b6"/>
<rect x="83.0" y="126.1" width="114.0" height="37.1" rx="2" fill="#e0a192"/>
<rect x="203.0" y="126.1" width="114.0" height="37.1" rx="2" fill="#cf9580"/>
<rect x="323.0" y="126.1" width="114.0" height="37.1" rx="2" fill="#957500"/>
<rect x="443.0" y="126.1" width="114.0" height="37.1" rx="2" fill="#d5a477"/>
<rect x="563.0" y="126.1" width="114.0" height="37.1" rx="2" fill="#699260"/>
<rect x="683.0" y="126.1" width="114.0" height="37.1" rx="2" fill="#00aea4"/>
<rect x="803.0" y="126.1" width="114.0" height="37.1" rx="2" fill="#b7785b"/>
<rect x="83.0" y="169.2" width="114.0" height="37.1" rx="2" fill="#8473ce"/>
<rect x="203.0" y="169.2" width="114.0" height="37.1" rx="2" fill="#7d6ab9"/>
<rect x="323.0" y="169.2" width="114.0" height="37.1" rx="2" fill="#9363af"/>
<rect x="443.0" y="169.2" width="114.0" height="37.1" rx="2" fill="#c18fb6"/>
<rect x="563.0" y="169.2" width="114.0" height="37.1" rx="2" fill="#4f917d"/>
<rect x="683.0" y="169.2" width="114.0" height="37.1" rx="2" fill="#00a9b1"/>
<rect x="803.0" y="169.2" width="114.0" height="37.1" rx="2" fill="#cba3d5"/>
<rect x="83.0" y="212.2" width="99.0" height="37.1" rx="2" fill="#9d7300"/>
<rect x="188.0" y="212.2" width="99.0" height="37.1" rx="2" fill="#d09c72"/>
<rect x="293.0" y="212.2" width="99.0" height="37.1" rx="2" fill="#00ada2"/>
<rect x="398.0" y="212.2" width="99.0" height="37.1" rx="2" fill="#cc887e"/>
<rect x="503.0" y="212.2" width="99.0" height="37.1" rx="2" fill="#d1918d"/>
<rect x="608.0" y="212.2" width="99.0" height="37.1" rx="2" fill="#927500"/>
<rect x="713.0" y="212.2" width="99.0" height="37.1" rx="2" fill="#00ada2"/>
<rect x="818.0" y="212.2" width="99.0" height="37.1" rx="2" fill="#cc8c97"/>
<rect x="83.0" y="255.3" width="134.0" height="37.1" rx="2" fill="#7b732d"/>
<rect x="223.0" y="255.3" width="134.0" height="37.1" rx="2" fill="#d18886"/>
<rect x="363.0" y="255.3" width="134.0" height="37.1" rx="2" fill="#00aba6"/>
<rect x="503.0" y="255.3" width="134.0" height="37.1" rx="2" fill="#ac7bba"/>
<rect x="643.0" y="255.3" width="134.0" height="37.1" rx="2" fill="#d2939e"/>
<rect x="783.0" y="255.3" width="134.0" height="37.1" rx="2" fill="#a28850"/>
<rect x="83.0" y="298.4" width="162.0" height="37.1" rx="2" fill="#00aca8"/>
<rect x="251.0" y="298.4" width="162.0" height="37.1" rx="2" fill="#cc8fa8"/>
<rect x="419.0" y="298.4" width="162.0" height="37.1" rx="2" fill="#937400"/>
<rect x="587.0" y="298.4" width="162.0" height="37.1" rx="2" fill="#ad82b3"/>
<rect x="755.0" y="298.4" width="162.0" height="37.1" rx="2" fill="#c787ad"/>
<rect x="83.0" y="341.5" width="134.0" height="37.1" rx="2" fill="#8a6ac4"/>
<rect x="223.0" y="341.5" width="134.0" height="37.1" rx="2" fill="#8361b0"/>
<rect x="363.0" y="341.5" width="134.0" height="37.1" rx="2" fill="#975ba5"/>
<rect x="503.0" y="341.5" width="134.0" height="37.1" rx="2" fill="#b26456"/>
<rect x="643.0" y="341.5" width="134.0" height="37.1" rx="2" fill="#a57d57"/>
<rect x="783.0" y="341.5" width="134.0" height="37.1" rx="2" fill="#b96c90"/>
<rect x="83.0" y="384.5" width="114.0" height="37.1" rx="2" fill="#9d7500"/>
<rect x="203.0" y="384.5" width="114.0" height="37.1" rx="2" fill="#dc9a8f"/>
<rect x="323.0" y="384.5" width="114.0" height="37.1" rx="2" fill="#00afa5"/>
<rect x="443.0" y="384.5" width="114.0" height="37.1" rx="2" fill="#c08183"/>
<rect x="563.0" y="384.5" width="114.0" height="37.1" rx="2" fill="#aa9458"/>
<rect x="683.0" y="384.5" width="114.0" height="37.1" rx="2" fill="#00afa5"/>
<rect x="803.0" y="384.5" width="114.0" height="37.1" rx="2" fill="#e6a17d"/>
<rect x="83.0" y="427.6" width="414.0" height="37.1" rx="2" fill="#856f20"/>
<rect x="503.0" y="427.6" width="414.0" height="37.1" rx="2" fill="#c77a6b"/>
<rect x="83.0" y="470.7" width="204.0" height="37.1" rx="2" fill="#8766c7"/>
<rect x="293.0" y="470.7" width="204.0" height="37.1" rx="2" fill="#7f5db2"/>
<rect x="503.0" y="470.7" width="204.0" height="37.1" rx="2" fill="#9257a9"/>
<rect x="713.0" y="470.7" width="204.0" height="37.1" rx="2" fill="#9d528a"/>
<rect x="83.0" y="513.8" width="114.0" height="37.1" rx="2" fill="#79742d"/>
<rect x="203.0" y="513.8" width="114.0" height="37.1" rx="2" fill="#c486a7"/>
<rect x="323.0" y="513.8" width="114.0" height="37.1" rx="2" fill="#a2a974"/>
<rect x="443.0" y="513.8" width="114.0" height="37.1" rx="2" fill="#00aea9"/>
<rect x="563.0" y="513.8" width="114.0" height="37.1" rx="2" fill="#c78a84"/>
<rect x="683.0" y="513.8" width="114.0" height="37.1" rx="2" fill="#b397c5"/>
<rect x="803.0" y="513.8" width="114.0" height="37.1" rx="2" fill="#d29881"/>
<rect x="83.0" y="556.8" width="114.0" height="37.1" rx="2" fill="#9f7700"/>
<rect x="203.0" y="556.8" width="114.0" height="37.1" rx="2" fill="#de9899"/>
<rect x="323.0" y="556.8" width="114.0" height="37.1" rx="2" fill="#00b1a9"/>
<rect x="443.0" y="556.8" width="114.0" height="37.1" rx="2" fill="#d59cb2"/>
<rect x="563.0" y="556.8" width="114.0" height="37.1" rx="2" fill="#c79678"/>
<rect x="683.0" y="556.8" width="114.0" height="37.1" rx="2" fill="#00b1a9"/>
<rect x="803.0" y="556.8" width="114.0" height="37.1" rx="2" fill="#e69ab5"/>
<rect x="83.0" y="599.9" width="414.0" height="37.1" rx="2" fill="#c16f8e"/>
<rect x="503.0" y="599.9" width="414.0" height="37.1" rx="2" fill="#b875a1"/>
</svg>