<svg xmlns="http://www.w3.org/2000/svg" width="1000" height="800" viewBox="0 0 1000 800"><rect width="1000" height="800" fill="#ffffff"/><text x="500" y="48" text-anchor="middle" fill="#222222" font-family="Georgia, serif" font-style="italic" font-size="32">Blind Joe Death</text><g transform="translate(0,80)">
<rect width="1000" height="720" fill="#ffffff"/>
<polygon points="1000.0,0.0 500.0,101.5 0.0,0.0" fill="#c79394" stroke="#c79394" stroke-width="0.6"/>
<polygon points="140.0,403.1 0.0,720.0 0.0,0.0" fill="#b48430" stroke="#b48430" stroke-width="0.6"/>
<polygon points="500.0,101.5 220.0,101.5 0.0,0.0" fill="#8aa6b1" stroke="#8aa6b1" stroke-width="0.6"/>
<polygon points="780.0,101.5 500.0,101.5 1000.0,0.0" fill="#c592a0" stroke="#c592a0" stroke-width="0.6"/>
<polygon points="132.5,230.8 140.0,403.1 0.0,0.0" fill="#b38330" stroke="#b38330" stroke-width="0.6"/>
<polygon points="140.0,403.1 132.5,230.8 150.0,360.0" fill="#967141" stroke="#967141" stroke-width="0.6"/>
<polygon points="140.0,575.4 290.0,618.5 0.0,720.0" fill="#aa742f" stroke="#aa742f" stroke-width="0.6"/>
<polygon points="710.0,618.5 290.0,618.5 500.0,575.4" fill="#c580a0" stroke="#c580a0" stroke-width="0.6"/>
<polygon points="380.0,144.6 220.0,101.5 500.0,101.5" fill="#719880" stroke="#719880" stroke-width="0.6"/>
<polygon points="860.0,144.6 780.0,101.5 1000.0,0.0" fill="#c38579" stroke="#c38579" stroke-width="0.6"/>
<polygon points="780.0,101.5 620.0,144.6 500.0,101.5" fill="#ac9ba1" stroke="#ac9ba1" stroke-width="0.6"/>
<polygon points="710.0,618.5 860.0,575.4 1000.0,720.0" fill="#d78eae" stroke="#d78eae" stroke-width="0.6"/>
<polygon points="860.0,575.4 860.0,532.3 1000.0,720.0" fill="#df99a3" stroke="#df99a3" stroke-width="0.6"/>
<polygon points="620.0,575.4 710.0,618.5 500.0,575.4" fill="#c78d99" stroke="#c78d99" stroke-width="0.6"/>
<polygon points="220.0,101.5 140.0,144.6 0.0,0.0" fill="#95a79d" stroke="#95a79d" stroke-width="0.6"/>
<polygon points="867.5,230.8 860.0,187.7 1000.0,0.0" fill="#c58d98" stroke="#c58d98" stroke-width="0.6"/>
<polygon points="860.0,187.7 860.0,144.6 1000.0,0.0" fill="#be8683" stroke="#be8683" stroke-width="0.6"/>
<polygon points="762.5,230.8 860.0,187.7 867.5,230.8" fill="#889faf" stroke="#889faf" stroke-width="0.6"/>
<polygon points="740.0,575.4 860.0,575.4 710.0,618.5" fill="#8a95aa" stroke="#8a95aa" stroke-width="0.6"/>
<polygon points="620.0,575.4 740.0,575.4 710.0,618.5" fill="#809496" stroke="#809496" stroke-width="0.6"/>
<polygon points="740.0,532.3 815.0,489.2 860.0,532.3" fill="#b6809a" stroke="#b6809a" stroke-width="0.6"/>
<polygon points="710.0,446.2 815.0,489.2 740.0,532.3" fill="#b27793" stroke="#b27793" stroke-width="0.6"/>
<polygon points="710.0,446.2 740.0,532.3 620.0,532.3" fill="#c08991" stroke="#c08991" stroke-width="0.6"/>
<polygon points="605.0,489.2 710.0,446.2 620.0,532.3" fill="#b57488" stroke="#b57488" stroke-width="0.6"/>
<polygon points="260.0,532.3 185.0,489.2 290.0,446.2" fill="#9b7485" stroke="#9b7485" stroke-width="0.6"/>
<polygon points="260.0,575.4 290.0,618.5 140.0,575.4" fill="#bf7f62" stroke="#bf7f62" stroke-width="0.6"/>
<polygon points="290.0,618.5 380.0,575.4 500.0,575.4" fill="#8794a3" stroke="#8794a3" stroke-width="0.6"/>
<polygon points="260.0,575.4 380.0,575.4 290.0,618.5" fill="#8a939b" stroke="#8a939b" stroke-width="0.6"/>
<polygon points="395.0,489.2 380.0,532.3 290.0,446.2" fill="#8d7c6d" stroke="#8d7c6d" stroke-width="0.6"/>
<polygon points="380.0,532.3 260.0,532.3 290.0,446.2" fill="#a48a69" stroke="#a48a69" stroke-width="0.6"/>
<polygon points="500.0,144.6 380.0,144.6 500.0,101.5" fill="#b8936c" stroke="#b8936c" stroke-width="0.6"/>
<polygon points="620.0,144.6 500.0,144.6 500.0,101.5" fill="#a99d8c" stroke="#a99d8c" stroke-width="0.6"/>
<polygon points="380.0,144.6 260.0,144.6 220.0,101.5" fill="#769566" stroke="#769566" stroke-width="0.6"/>
<polygon points="260.0,144.6 140.0,144.6 220.0,101.5" fill="#90a397" stroke="#90a397" stroke-width="0.6"/>
<polygon points="140.0,187.7 237.5,230.8 132.5,230.8" fill="#a6816a" stroke="#a6816a" stroke-width="0.6"/>
<polygon points="140.0,187.7 132.5,230.8 0.0,0.0" fill="#ab8275" stroke="#ab8275" stroke-width="0.6"/>
<polygon points="140.0,144.6 140.0,187.7 0.0,0.0" fill="#c192a6" stroke="#c192a6" stroke-width="0.6"/>
<polygon points="132.5,230.8 150.0,273.8 150.0,360.0" fill="#8b7050" stroke="#8b7050" stroke-width="0.6"/>
<polygon points="237.5,230.8 150.0,273.8 132.5,230.8" fill="#a38135" stroke="#a38135" stroke-width="0.6"/>
<polygon points="260.0,403.1 140.0,403.1 150.0,360.0" fill="#ac7e71" stroke="#ac7e71" stroke-width="0.6"/>
<polygon points="260.0,403.1 185.0,489.2 140.0,403.1" fill="#ab7c72" stroke="#ab7c72" stroke-width="0.6"/>
<polygon points="185.0,489.2 260.0,403.1 290.0,446.2" fill="#a37a7c" stroke="#a37a7c" stroke-width="0.6"/>
<polygon points="552.5,230.8 570.0,273.8 500.0,316.9" fill="#b0806d" stroke="#b0806d" stroke-width="0.6"/>
<polygon points="740.0,144.6 620.0,144.6 780.0,101.5" fill="#6ca093" stroke="#6ca093" stroke-width="0.6"/>
<polygon points="860.0,144.6 740.0,144.6 780.0,101.5" fill="#869792" stroke="#869792" stroke-width="0.6"/>
<polygon points="710.0,273.8 836.0,316.9 710.0,360.0" fill="#bf888c" stroke="#bf888c" stroke-width="0.6"/>
<polygon points="710.0,273.8 762.5,230.8 836.0,316.9" fill="#8898a5" stroke="#8898a5" stroke-width="0.6"/>
<polygon points="850.0,273.8 762.5,230.8 867.5,230.8" fill="#7a9683" stroke="#7a9683" stroke-width="0.6"/>
<polygon points="762.5,230.8 850.0,273.8 836.0,316.9" fill="#78948b" stroke="#78948b" stroke-width="0.6"/>
<polygon points="850.0,273.8 867.5,230.8 850.0,360.0" fill="#b7807d" stroke="#b7807d" stroke-width="0.6"/>
<polygon points="836.0,316.9 850.0,273.8 850.0,360.0" fill="#b67e84" stroke="#b67e84" stroke-width="0.6"/>
<polygon points="815.0,489.2 860.0,403.1 860.0,532.3" fill="#c78482" stroke="#c78482" stroke-width="0.6"/>
<polygon points="860.0,532.3 860.0,403.1 1000.0,720.0" fill="#df9c91" stroke="#df9c91" stroke-width="0.6"/>
<polygon points="867.5,230.8 860.0,403.1 850.0,360.0" fill="#ce888c" stroke="#ce888c" stroke-width="0.6"/>
<polygon points="1000.0,720.0 860.0,403.1 1000.0,0.0" fill="#d69184" stroke="#d69184" stroke-width="0.6"/>
<polygon points="860.0,403.1 867.5,230.8 1000.0,0.0" fill="#ce8c7a" stroke="#ce8c7a" stroke-width="0.6"/>
<polygon points="570.0,273.8 570.0,360.0 500.0,316.9" fill="#a6715a" stroke="#a6715a" stroke-width="0.6"/>
<polygon points="570.0,360.0 500.0,403.1 500.0,316.9" fill="#ac7348" stroke="#ac7348" stroke-width="0.6"/>
<polygon points="500.0,532.3 500.0,403.1 605.0,489.2" fill="#71829c" stroke="#71829c" stroke-width="0.6"/>
<polygon points="500.0,532.3 605.0,489.2 620.0,532.3" fill="#73859d" stroke="#73859d" stroke-width="0.6"/>
<polygon points="500.0,403.1 500.0,532.3 395.0,489.2" fill="#6a849f" stroke="#6a849f" stroke-width="0.6"/>
<polygon points="500.0,532.3 380.0,532.3 395.0,489.2" fill="#60919a" stroke="#60919a" stroke-width="0.6"/>
<polygon points="140.0,532.3 185.0,489.2 260.0,532.3" fill="#977589" stroke="#977589" stroke-width="0.6"/>
<polygon points="185.0,489.2 140.0,532.3 140.0,403.1" fill="#8a7051" stroke="#8a7051" stroke-width="0.6"/>
<polygon points="140.0,403.1 140.0,532.3 0.0,720.0" fill="#92750f" stroke="#92750f" stroke-width="0.6"/>
<polygon points="140.0,532.3 140.0,575.4 0.0,720.0" fill="#93760f" stroke="#93760f" stroke-width="0.6"/>
<polygon points="164.0,316.9 260.0,403.1 150.0,360.0" fill="#7790a9" stroke="#7790a9" stroke-width="0.6"/>
<polygon points="150.0,273.8 164.0,316.9 150.0,360.0" fill="#578389" stroke="#578389" stroke-width="0.6"/>
<polygon points="164.0,316.9 150.0,273.8 237.5,230.8" fill="#6e946d" stroke="#6e946d" stroke-width="0.6"/>
<polygon points="380.0,403.1 395.0,489.2 290.0,446.2" fill="#577e7d" stroke="#577e7d" stroke-width="0.6"/>
<polygon points="380.0,403.1 500.0,403.1 395.0,489.2" fill="#6a849e" stroke="#6a849e" stroke-width="0.6"/>
<polygon points="552.5,230.8 620.0,187.7 570.0,273.8" fill="#998a97" stroke="#998a97" stroke-width="0.6"/>
<polygon points="620.0,187.7 552.5,230.8 500.0,187.7" fill="#a09095" stroke="#a09095" stroke-width="0.6"/>
<polygon points="710.0,273.8 740.0,187.7 762.5,230.8" fill="#46a3a6" stroke="#46a3a6" stroke-width="0.6"/>
<polygon points="762.5,230.8 740.0,187.7 860.0,187.7" fill="#43a9b8" stroke="#43a9b8" stroke-width="0.6"/>
<polygon points="740.0,403.1 710.0,446.2 710.0,360.0" fill="#798d78" stroke="#798d78" stroke-width="0.6"/>
<polygon points="860.0,403.1 740.0,403.1 850.0,360.0" fill="#8a9490" stroke="#8a9490" stroke-width="0.6"/>
<polygon points="710.0,446.2 740.0,403.1 815.0,489.2" fill="#767e88" stroke="#767e88" stroke-width="0.6"/>
<polygon points="740.0,403.1 860.0,403.1 815.0,489.2" fill="#818c8e" stroke="#818c8e" stroke-width="0.6"/>
<polygon points="740.0,403.1 836.0,316.9 850.0,360.0" fill="#808ba1" stroke="#808ba1" stroke-width="0.6"/>
<polygon points="836.0,316.9 740.0,403.1 710.0,360.0" fill="#79918e" stroke="#79918e" stroke-width="0.6"/>
<polygon points="500.0,403.1 620.0,403.1 605.0,489.2" fill="#a97981" stroke="#a97981" stroke-width="0.6"/>
<polygon points="570.0,360.0 620.0,403.1 500.0,403.1" fill="#b47d66" stroke="#b47d66" stroke-width="0.6"/>
<polygon points="620.0,403.1 710.0,446.2 605.0,489.2" fill="#ac7779" stroke="#ac7779" stroke-width="0.6"/>
<polygon points="710.0,446.2 620.0,403.1 710.0,360.0" fill="#b2845e" stroke="#b2845e" stroke-width="0.6"/>
<polygon points="668.0,316.9 710.0,273.8 710.0,360.0" fill="#b7868e" stroke="#b7868e" stroke-width="0.6"/>
<polygon points="668.0,316.9 570.0,360.0 570.0,273.8" fill="#ae7696" stroke="#ae7696" stroke-width="0.6"/>
<polygon points="620.0,403.1 668.0,316.9 710.0,360.0" fill="#a98676" stroke="#a98676" stroke-width="0.6"/>
<polygon points="668.0,316.9 620.0,403.1 570.0,360.0" fill="#ae7e76" stroke="#ae7e76" stroke-width="0.6"/>
<polygon points="140.0,187.7 260.0,187.7 237.5,230.8" fill="#9b7ea8" stroke="#9b7ea8" stroke-width="0.6"/>
<polygon points="260.0,187.7 380.0,187.7 342.5,230.8" fill="#5b7eae" stroke="#5b7eae" stroke-width="0.6"/>
<polygon points="290.0,273.8 342.5,230.8 332.0,316.9" fill="#89979b" stroke="#89979b" stroke-width="0.6"/>
<polygon points="290.0,273.8 164.0,316.9 237.5,230.8" fill="#8b9b8b" stroke="#8b9b8b" stroke-width="0.6"/>
<polygon points="260.0,187.7 290.0,273.8 237.5,230.8" fill="#b58591" stroke="#b58591" stroke-width="0.6"/>
<polygon points="290.0,273.8 260.0,187.7 342.5,230.8" fill="#6f8aa1" stroke="#6f8aa1" stroke-width="0.6"/>
<polygon points="430.0,360.0 380.0,403.1 332.0,316.9" fill="#7688a6" stroke="#7688a6" stroke-width="0.6"/>
<polygon points="500.0,403.1 430.0,360.0 500.0,316.9" fill="#a37062" stroke="#a37062" stroke-width="0.6"/>
<polygon points="380.0,403.1 430.0,360.0 500.0,403.1" fill="#72839a" stroke="#72839a" stroke-width="0.6"/>
<polygon points="740.0,187.7 657.5,230.8 620.0,187.7" fill="#4b9064" stroke="#4b9064" stroke-width="0.6"/>
<polygon points="657.5,230.8 740.0,187.7 710.0,273.8" fill="#779170" stroke="#779170" stroke-width="0.6"/>
<polygon points="668.0,316.9 657.5,230.8 710.0,273.8" fill="#b08470" stroke="#b08470" stroke-width="0.6"/>
<polygon points="620.0,187.7 657.5,230.8 570.0,273.8" fill="#848067" stroke="#848067" stroke-width="0.6"/>
<polygon points="657.5,230.8 668.0,316.9 570.0,273.8" fill="#a47b7a" stroke="#a47b7a" stroke-width="0.6"/>
<polygon points="447.5,230.8 380.0,187.7 500.0,187.7" fill="#b57ea1" stroke="#b57ea1" stroke-width="0.6"/>
<polygon points="447.5,230.8 552.5,230.8 500.0,316.9" fill="#bb8459" stroke="#bb8459" stroke-width="0.6"/>
<polygon points="552.5,230.8 447.5,230.8 500.0,187.7" fill="#ca8d96" stroke="#ca8d96" stroke-width="0.6"/>
<polygon points="164.0,316.9 290.0,360.0 260.0,403.1" fill="#758da2" stroke="#758da2" stroke-width="0.6"/>
<polygon points="290.0,273.8 290.0,360.0 164.0,316.9" fill="#71879f" stroke="#71879f" stroke-width="0.6"/>
<polygon points="290.0,360.0 290.0,273.8 332.0,316.9" fill="#b57d9f" stroke="#b57d9f" stroke-width="0.6"/>
<polygon points="380.0,403.1 290.0,360.0 332.0,316.9" fill="#6f8aaa" stroke="#6f8aaa" stroke-width="0.6"/>
<polygon points="260.0,403.1 290.0,360.0 290.0,446.2" fill="#a17975" stroke="#a17975" stroke-width="0.6"/>
<polygon points="290.0,360.0 380.0,403.1 290.0,446.2" fill="#58807c" stroke="#58807c" stroke-width="0.6"/>
<polygon points="430.0,360.0 430.0,273.8 500.0,316.9" fill="#637e6e" stroke="#637e6e" stroke-width="0.6"/>
<polygon points="430.0,273.8 447.5,230.8 500.0,316.9" fill="#758d61" stroke="#758d61" stroke-width="0.6"/>
<polygon points="430.0,273.8 430.0,360.0 332.0,316.9" fill="#7687a7" stroke="#7687a7" stroke-width="0.6"/>
<polygon points="342.5,230.8 430.0,273.8 332.0,316.9" fill="#44a2a6" stroke="#44a2a6" stroke-width="0.6"/>
<polygon points="380.0,187.7 430.0,273.8 342.5,230.8" fill="#3194a8" stroke="#3194a8" stroke-width="0.6"/>
<polygon points="447.5,230.8 430.0,273.8 380.0,187.7" fill="#75879c" stroke="#75879c" stroke-width="0.6"/>
<polygon points="290.0,618.5 710.0,618.5 1000.0,720.0" fill="#ca80a1" stroke="#ca80a1" stroke-width="0.6"/>
<polygon points="0.0,720.0 290.0,618.5 1000.0,720.0" fill="#c2806b" stroke="#c2806b" stroke-width="0.6"/>
<polygon points="740.0,575.4 740.0,532.3 860.0,532.3" fill="#82a0a5" stroke="#82a0a5" stroke-width="0.6"/>
<polygon points="860.0,575.4 740.0,575.4 860.0,532.3" fill="#92a1a0" stroke="#92a1a0" stroke-width="0.6"/>
<polygon points="740.0,575.4 620.0,575.4 620.0,532.3" fill="#849b8d" stroke="#849b8d" stroke-width="0.6"/>
<polygon points="740.0,532.3 740.0,575.4 620.0,532.3" fill="#7e9ba6" stroke="#7e9ba6" stroke-width="0.6"/>
<polygon points="380.0,532.3 380.0,575.4 260.0,575.4" fill="#80a692" stroke="#80a692" stroke-width="0.6"/>
<polygon points="380.0,532.3 260.0,575.4 260.0,532.3" fill="#c29891" stroke="#c29891" stroke-width="0.6"/>
<polygon points="620.0,575.4 500.0,532.3 620.0,532.3" fill="#849a8c" stroke="#849a8c" stroke-width="0.6"/>
<polygon points="500.0,532.3 620.0,575.4 500.0,575.4" fill="#89a09b" stroke="#89a09b" stroke-width="0.6"/>
<polygon points="380.0,532.3 500.0,532.3 380.0,575.4" fill="#36ad97" stroke="#36ad97" stroke-width="0.6"/>
<polygon points="380.0,575.4 500.0,532.3 500.0,575.4" fill="#47a9ac" stroke="#47a9ac" stroke-width="0.6"/>
<polygon points="260.0,575.4 140.0,532.3 260.0,532.3" fill="#b4867a" stroke="#b4867a" stroke-width="0.6"/>
<polygon points="140.0,532.3 260.0,575.4 140.0,575.4" fill="#a78142" stroke="#a78142" stroke-width="0.6"/>
<polygon points="500.0,144.6 620.0,187.7 500.0,187.7" fill="#a1978e" stroke="#a1978e" stroke-width="0.6"/>
<polygon points="620.0,187.7 500.0,144.6 620.0,144.6" fill="#849871" stroke="#849871" stroke-width="0.6"/>
<polygon points="740.0,187.7 740.0,144.6 860.0,144.6" fill="#3d9a90" stroke="#3d9a90" stroke-width="0.6"/>
<polygon points="860.0,187.7 740.0,187.7 860.0,144.6" fill="#8197a0" stroke="#8197a0" stroke-width="0.6"/>
<polygon points="740.0,187.7 620.0,187.7 620.0,144.6" fill="#3d9a84" stroke="#3d9a84" stroke-width="0.6"/>
<polygon points="740.0,144.6 740.0,187.7 620.0,144.6" fill="#23a391" stroke="#23a391" stroke-width="0.6"/>
<polygon points="380.0,187.7 500.0,144.6 500.0,187.7" fill="#b8889f" stroke="#b8889f" stroke-width="0.6"/>
<polygon points="500.0,144.6 380.0,187.7 380.0,144.6" fill="#aa7f62" stroke="#aa7f62" stroke-width="0.6"/>
<polygon points="260.0,187.7 140.0,187.7 140.0,144.6" fill="#a07fb3" stroke="#a07fb3" stroke-width="0.6"/>
<polygon points="260.0,144.6 260.0,187.7 140.0,144.6" fill="#b98b99" stroke="#b98b99" stroke-width="0.6"/>
<polygon points="380.0,187.7 260.0,187.7 380.0,144.6" fill="#8c6c78" stroke="#8c6c78" stroke-width="0.6"/>
<polygon points="260.0,187.7 260.0,144.6 380.0,144.6" fill="#a07c68" stroke="#a07c68" stroke-width="0.6"/>
<text x="220.0" y="101.5" font-size="15" text-anchor="middle" dominant-baseline="middle" font-family="Georgia, serif" fill="none" stroke="#000000" stroke-width="3" stroke-opacity="0.45">the</text>
<text x="220.0" y="101.5" font-size="15" text-anchor="middle" dominant-baseline="middle" font-family="Georgia, serif" fill="#ffffff">the</text>
<text x="500.0" y="101.5" font-size="15" text-anchor="middle" dominant-baseline="middle" font-family="Georgia, serif" fill="none" stroke="#000000" stroke-width="3" stroke-opacity="0.45">globe</text>
<text x="500.0" y="101.5" font-size="15" text-anchor="middle" dominant-baseline="middle" font-family="Georgia, serif" fill="#ffffff">globe</text>
<text x="780.0" y="101.5" font-size="15" text-anchor="middle" dominant-baseline="middle" font-family="Georgia, serif" fill="none" stroke="#000000" stroke-width="3" stroke-opacity="0.45">spins</text>
<text x="780.0" y="101.5" font-size="15" text-anchor="middle" dominant-baseline="middle" font-family="Georgia, serif" fill="#ffffff">spins</text>
<text x="140.0" y="144.6" font-size="15" text-anchor="middle" dominant-baseline="middle" font-family="Georgia, serif" fill="none" stroke="#000000" stroke-width="3" stroke-opacity="0.45">dragging</text>
<text x="140.0" y="144.6" font-size="15" text-anchor="middle" dominant-baseline="middle" font-family="Georgia, serif" fill="#ffffff">dragging</text>
<text x="260.0" y="144.6" font-size="15" text-anchor="middle" dominant-baseline="middle" font-family="Georgia, serif" fill="none" stroke="#000000" stroke-width="3" stroke-opacity="0.45">collisions</text>
<text x="260.0" y="144.6" font-size="15" text-anchor="middle" dominant-baseline="middle" font-family="Georgia, serif" fill="#ffffff">collisions</text>
<text x="380.0" y="144.6" font-size="15" text-anchor="middle" dominant-baseline="middle" font-family="Georgia, serif" fill="none" stroke="#000000" stroke-width="3" stroke-opacity="0.45">of</text>
<text x="380.0" y="144.6" font-size="15" text-anchor="middle" dominant-baseline="middle" font-family="Georgia, serif" fill="#ffffff">of</text>
<text x="500.0" y="144.6" font-size="15" text-anchor="middle" dominant-baseline="middle" font-family="Georgia, serif" fill="none" stroke="#000000" stroke-width="3" stroke-opacity="0.45">clutches</text>
<text x="500.0" y="144.6" font-size="15" text-anchor="middle" dominant-baseline="middle" font-family="Georgia, serif" fill="#ffffff">clutches</text>
<text x="620.0" y="144.6" font-size="15" text-anchor="middle" dominant-baseline="middle" font-family="Georgia, serif" fill="none" stroke="#000000" stroke-width="3" stroke-opacity="0.45">to</text>
<text x="620.0" y="144.6" font-size="15" text-anchor="middle" dominant-baseline="middle" font-family="Georgia, serif" fill="#ffffff">to</text>
<text x="740.0" y="144.6" font-size="15" text-anchor="middle" dominant-baseline="middle" font-family="Georgia, serif" fill="none" stroke="#000000" stroke-width="3" stroke-opacity="0.45">the</text>
<text x="740.0" y="144.6" font-size="15" text-anchor="middle" dominant-baseline="middle" font-family="Georgia, serif" fill="#ffffff">the</text>
<text x="860.0" y="144.6" font-size="15" text-anchor="middle" dominant-baseline="middle" font-family="Georgia, serif" fill="none" stroke="#000000" stroke-width="3" stroke-opacity="0.45">end</text>
<text x="860.0" y="144.6" font-size="15" text-anchor="middle" dominant-baseline="middle" font-family="Georgia, serif" fill="#ffffff">end</text>
<text x="140.0" y="187.7" font-size="15" text-anchor="middle" dominant-baseline="middle" font-family="Georgia, serif" fill="none" stroke="#000000" stroke-width="3" stroke-opacity="0.45">blind</text>
<text x="140.0" y="187.7" font-size="15" text-anchor="middle" dominant-baseline="middle" font-family="Georgia, serif" fill="#ffffff">blind</text>
<text x="260.0" y="187.7" font-size="15" text-anchor="middle" dominant-baseline="middle" font-family="Georgia, serif" fill="none" stroke="#000000" stroke-width="3" stroke-opacity="0.45">joe</text>
<text x="260.0" y="187.7" font-size="15" text-anchor="middle" dominant-baseline="middle" font-family="Georgia, serif" fill="#ffffff">joe</text>
<text x="380.0" y="187.7" font-size="15" text-anchor="middle" dominant-baseline="middle" font-family="Georgia, serif" fill="none" stroke="#000000" stroke-width="3" stroke-opacity="0.45">death</text>
<text x="380.0" y="187.7" font-size="15" text-anchor="middle" dominant-baseline="middle" font-family="Georgia, serif" fill="#ffffff">death</text>
<text x="500.0" y="187.7" font-size="15" text-anchor="middle" dominant-baseline="middle" font-family="Georgia, serif" fill="none" stroke="#000000" stroke-width="3" stroke-opacity="0.45">staggers</text>
<text x="500.0" y="187.7" font-size="15" text-anchor="middle" dominant-baseline="middle" font-family="Georgia, serif" fill="#ffffff">staggers</text>
<text x="620.0" y="187.7" font-size="15" text-anchor="middle" dominant-baseline="middle" font-family="Georgia, serif" fill="none" stroke="#000000" stroke-width="3" stroke-opacity="0.45">to</text>
<text x="620.0" y="187.7" font-size="15" text-anchor="middle" dominant-baseline="middle" font-family="Georgia, serif" fill="#ffffff">to</text>
<text x="740.0" y="187.7" font-size="15" text-anchor="middle" dominant-baseline="middle" font-family="Georgia, serif" fill="none" stroke="#000000" stroke-width="3" stroke-opacity="0.45">the</text>
<text x="740.0" y="187.7" font-size="15" text-anchor="middle" dominant-baseline="middle" font-family="Georgia, serif" fill="#ffffff">the</text>
<text x="860.0" y="187.7" font-size="15" text-anchor="middle" dominant-baseline="middle" font-family="Georgia, serif" fill="none" stroke="#000000" stroke-width="3" stroke-opacity="0.45">instrument</text>
<text x="860.0" y="187.7" font-size="15" text-anchor="middle" dominant-baseline="middle" font-family="Georgia, serif" fill="#ffffff">instrument</text>
<text x="132.5" y="230.8" font-size="15" text-anchor="middle" dominant-baseline="middle" font-family="Georgia, serif" fill="none" stroke="#000000" stroke-width="3" stroke-opacity="0.45">and</text>
<text x="132.5" y="230.8" font-size="15" text-anchor="middle" dominant-baseline="middle" font-family="Georgia, serif" fill="#ffffff">and</text>
<text x="237.5" y="230.8" font-size="15" text-anchor="middle" dominant-baseline="middle" font-family="Georgia, serif" fill="none" stroke="#000000" stroke-width="3" stroke-opacity="0.45">caresses</text>
<text x="237.5" y="230.8" font-size="15" text-anchor="middle" dominant-baseline="middle" font-family="Georgia, serif" fill="#ffffff">caresses</text>
<text x="342.5" y="230.8" font-size="15" text-anchor="middle" dominant-baseline="middle" font-family="Georgia, serif" fill="none" stroke="#000000" stroke-width="3" stroke-opacity="0.45">the</text>
<text x="342.5" y="230.8" font-size="15" text-anchor="middle" dominant-baseline="middle" font-family="Georgia, serif" fill="#ffffff">the</text>
<text x="447.5" y="230.8" font-size="15" text-anchor="middle" dominant-baseline="middle" font-family="Georgia, serif" fill="none" stroke="#000000" stroke-width="3" stroke-opacity="0.45">soft</text>
<text x="447.5" y="230.8" font-size="15" text-anchor="middle" dominant-baseline="middle" font-family="Georgia, serif" fill="#ffffff">soft</text>
<text x="552.5" y="230.8" font-size="15" text-anchor="middle" dominant-baseline="middle" font-family="Georgia, serif" fill="none" stroke="#000000" stroke-width="3" stroke-opacity="0.45">wood</text>
<text x="552.5" y="230.8" font-size="15" text-anchor="middle" dominant-baseline="middle" font-family="Georgia, serif" fill="#ffffff">wood</text>
<text x="657.5" y="230.8" font-size="15" text-anchor="middle" dominant-baseline="middle" font-family="Georgia, serif" fill="none" stroke="#000000" stroke-width="3" stroke-opacity="0.45">of</text>
<text x="657.5" y="230.8" font-size="15" text-anchor="middle" dominant-baseline="middle" font-family="Georgia, serif" fill="#ffffff">of</text>
<text x="762.5" y="230.8" font-size="15" text-anchor="middle" dominant-baseline="middle" font-family="Georgia, serif" fill="none" stroke="#000000" stroke-width="3" stroke-opacity="0.45">the</text>
<text x="762.5" y="230.8" font-size="15" text-anchor="middle" dominant-baseline="middle" font-family="Georgia, serif" fill="#ffffff">the</text>
<text x="867.5" y="230.8" font-size="15" text-anchor="middle" dominant-baseline="middle" font-family="Georgia, serif" fill="none" stroke="#000000" stroke-width="3" stroke-opacity="0.45">neck</text>
<text x="867.5" y="230.8" font-size="15" text-anchor="middle" dominant-baseline="middle" font-family="Georgia, serif" fill="#ffffff">neck</text>
<text x="150.0" y="273.8" font-size="15" text-anchor="middle" dominant-baseline="middle" font-family="Georgia, serif" fill="none" stroke="#000000" stroke-width="3" stroke-opacity="0.45">he</text>
<text x="150.0" y="273.8" font-size="15" text-anchor="middle" dominant-baseline="middle" font-family="Georgia, serif" fill="#ffffff">he</text>
<text x="290.0" y="273.8" font-size="15" text-anchor="middle" dominant-baseline="middle" font-family="Georgia, serif" fill="none" stroke="#000000" stroke-width="3" stroke-opacity="0.45">guides</text>
<text x="290.0" y="273.8" font-size="15" text-anchor="middle" dominant-baseline="middle" font-family="Georgia, serif" fill="#ffffff">guides</text>
<text x="430.0" y="273.8" font-size="15" text-anchor="middle" dominant-baseline="middle" font-family="Georgia, serif" fill="none" stroke="#000000" stroke-width="3" stroke-opacity="0.45">the</text>
<text x="430.0" y="273.8" font-size="15" text-anchor="middle" dominant-baseline="middle" font-family="Georgia, serif" fill="#ffffff">the</text>
<text x="570.0" y="273.8" font-size="15" text-anchor="middle" dominant-baseline="middle" font-family="Georgia, serif" fill="none" stroke="#000000" stroke-width="3" stroke-opacity="0.45">dizzy</text>
<text x="570.0" y="273.8" font-size="15" text-anchor="middle" dominant-baseline="middle" font-family="Georgia, serif" fill="#ffffff">dizzy</text>
<text x="710.0" y="273.8" font-size="15" text-anchor="middle" dominant-baseline="middle" font-family="Georgia, serif" fill="none" stroke="#000000" stroke-width="3" stroke-opacity="0.45">fingers</text>
<text x="710.0" y="273.8" font-size="15" text-anchor="middle" dominant-baseline="middle" font-family="Georgia, serif" fill="#ffffff">fingers</text>
<text x="850.0" y="273.8" font-size="15" text-anchor="middle" dominant-baseline="middle" font-family="Georgia, serif" fill="none" stroke="#000000" stroke-width="3" stroke-opacity="0.45">through</text>
<text x="850.0" y="273.8" font-size="15" text-anchor="middle" dominant-baseline="middle" font-family="Georgia, serif" fill="#ffffff">through</text>
<text x="164.0" y="316.9" font-size="15" text-anchor="middle" dominant-baseline="middle" font-family="Georgia, serif" fill="none" stroke="#000000" stroke-width="3" stroke-opacity="0.45">the</text>
<text x="164.0" y="316.9" font-size="15" text-anchor="middle" dominant-baseline="middle" font-family="Georgia, serif" fill="#ffffff">the</text>
<text x="332.0" y="316.9" font-size="15" text-anchor="middle" dominant-baseline="middle" font-family="Georgia, serif" fill="none" stroke="#000000" stroke-width="3" stroke-opacity="0.45">mist</text>
<text x="332.0" y="316.9" font-size="15" text-anchor="middle" dominant-baseline="middle" font-family="Georgia, serif" fill="#ffffff">mist</text>
<text x="500.0" y="316.9" font-size="15" text-anchor="middle" dominant-baseline="middle" font-family="Georgia, serif" fill="none" stroke="#000000" stroke-width="3" stroke-opacity="0.45">of</text>
<text x="500.0" y="316.9" font-size="15" text-anchor="middle" dominant-baseline="middle" font-family="Georgia, serif" fill="#ffffff">of</text>
<text x="668.0" y="316.9" font-size="15" text-anchor="middle" dominant-baseline="middle" font-family="Georgia, serif" fill="none" stroke="#000000" stroke-width="3" stroke-opacity="0.45">melancholy</text>
<text x="668.0" y="316.9" font-size="15" text-anchor="middle" dominant-baseline="middle" font-family="Georgia, serif" fill="#ffffff">melancholy</text>
<text x="836.0" y="316.9" font-size="15" text-anchor="middle" dominant-baseline="middle" font-family="Georgia, serif" fill="none" stroke="#000000" stroke-width="3" stroke-opacity="0.45">melody</text>
<text x="836.0" y="316.9" font-size="15" text-anchor="middle" dominant-baseline="middle" font-family="Georgia, serif" fill="#ffffff">melody</text>
<text x="150.0" y="360.0" font-size="15" text-anchor="middle" dominant-baseline="middle" font-family="Georgia, serif" fill="none" stroke="#000000" stroke-width="3" stroke-opacity="0.45">blind</text>
<text x="150.0" y="360.0" font-size="15" text-anchor="middle" dominant-baseline="middle" font-family="Georgia, serif" fill="#ffffff">blind</text>
<text x="290.0" y="360.0" font-size="15" text-anchor="middle" dominant-baseline="middle" font-family="Georgia, serif" fill="none" stroke="#000000" stroke-width="3" stroke-opacity="0.45">joe</text>
<text x="290.0" y="360.0" font-size="15" text-anchor="middle" dominant-baseline="middle" font-family="Georgia, serif" fill="#ffffff">joe</text>
<text x="430.0" y="360.0" font-size="15" text-anchor="middle" dominant-baseline="middle" font-family="Georgia, serif" fill="none" stroke="#000000" stroke-width="3" stroke-opacity="0.45">death</text>
<text x="430.0" y="360.0" font-size="15" text-anchor="middle" dominant-baseline="middle" font-family="Georgia, serif" fill="#ffffff">death</text>
<text x="570.0" y="360.0" font-size="15" text-anchor="middle" dominant-baseline="middle" font-family="Georgia, serif" fill="none" stroke="#000000" stroke-width="3" stroke-opacity="0.45">grins</text>
<text x="570.0" y="360.0" font-size="15" text-anchor="middle" dominant-baseline="middle" font-family="Georgia, serif" fill="#ffffff">grins</text>
<text x="710.0" y="360.0" font-size="15" text-anchor="middle" dominant-baseline="middle" font-family="Georgia, serif" fill="none" stroke="#000000" stroke-width="3" stroke-opacity="0.45">at</text>
<text x="710.0" y="360.0" font-size="15" text-anchor="middle" dominant-baseline="middle" font-family="Georgia, serif" fill="#ffffff">at</text>
<text x="850.0" y="360.0" font-size="15" text-anchor="middle" dominant-baseline="middle" font-family="Georgia, serif" fill="none" stroke="#000000" stroke-width="3" stroke-opacity="0.45">fahey</text>
<text x="850.0" y="360.0" font-size="15" text-anchor="middle" dominant-baseline="middle" font-family="Georgia, serif" fill="#ffffff">fahey</text>
<text x="140.0" y="403.1" font-size="15" text-anchor="middle" dominant-baseline="middle" font-family="Georgia, serif" fill="none" stroke="#000000" stroke-width="3" stroke-opacity="0.45">and</text>
<text x="140.0" y="403.1" font-size="15" text-anchor="middle" dominant-baseline="middle" font-family="Georgia, serif" fill="#ffffff">and</text>
<text x="260.0" y="403.1" font-size="15" text-anchor="middle" dominant-baseline="middle" font-family="Georgia, serif" fill="none" stroke="#000000" stroke-width="3" stroke-opacity="0.45">moves</text>
<text x="260.0" y="403.1" font-size="15" text-anchor="middle" dominant-baseline="middle" font-family="Georgia, serif" fill="#ffffff">moves</text>
<text x="380.0" y="403.1" font-size="15" text-anchor="middle" dominant-baseline="middle" font-family="Georgia, serif" fill="none" stroke="#000000" stroke-width="3" stroke-opacity="0.45">the</text>
<text x="380.0" y="403.1" font-size="15" text-anchor="middle" dominant-baseline="middle" font-family="Georgia, serif" fill="#ffffff">the</text>
<text x="500.0" y="403.1" font-size="15" text-anchor="middle" dominant-baseline="middle" font-family="Georgia, serif" fill="none" stroke="#000000" stroke-width="3" stroke-opacity="0.45">cap</text>
<text x="500.0" y="403.1" font-size="15" text-anchor="middle" dominant-baseline="middle" font-family="Georgia, serif" fill="#ffffff">cap</text>
<text x="620.0" y="403.1" font-size="15" text-anchor="middle" dominant-baseline="middle" font-family="Georgia, serif" fill="none" stroke="#000000" stroke-width="3" stroke-opacity="0.45">up</text>
<text x="620.0" y="403.1" font-size="15" text-anchor="middle" dominant-baseline="middle" font-family="Georgia, serif" fill="#ffffff">up</text>
<text x="740.0" y="403.1" font-size="15" text-anchor="middle" dominant-baseline="middle" font-family="Georgia, serif" fill="none" stroke="#000000" stroke-width="3" stroke-opacity="0.45">the</text>
<text x="740.0" y="403.1" font-size="15" text-anchor="middle" dominant-baseline="middle" font-family="Georgia, serif" fill="#ffffff">the</text>
<text x="860.0" y="403.1" font-size="15" text-anchor="middle" dominant-baseline="middle" font-family="Georgia, serif" fill="none" stroke="#000000" stroke-width="3" stroke-opacity="0.45">strings</text>
<text x="860.0" y="403.1" font-size="15" text-anchor="middle" dominant-baseline="middle" font-family="Georgia, serif" fill="#ffffff">strings</text>
<text x="290.0" y="446.2" font-size="15" text-anchor="middle" dominant-baseline="middle" font-family="Georgia, serif" fill="none" stroke="#000000" stroke-width="3" stroke-opacity="0.45">he</text>
<text x="290.0" y="446.2" font-size="15" text-anchor="middle" dominant-baseline="middle" font-family="Georgia, serif" fill="#ffffff">he</text>
<text x="710.0" y="446.2" font-size="15" text-anchor="middle" dominant-baseline="middle" font-family="Georgia, serif" fill="none" stroke="#000000" stroke-width="3" stroke-opacity="0.45">stops</text>
<text x="710.0" y="446.2" font-size="15" text-anchor="middle" dominant-baseline="middle" font-family="Georgia, serif" fill="#ffffff">stops</text>
<text x="185.0" y="489.2" font-size="15" text-anchor="middle" dominant-baseline="middle" font-family="Georgia, serif" fill="none" stroke="#000000" stroke-width="3" stroke-opacity="0.45">blind</text>
<text x="185.0" y="489.2" font-size="15" text-anchor="middle" dominant-baseline="middle" font-family="Georgia, serif" fill="#ffffff">blind</text>
<text x="395.0" y="489.2" font-size="15" text-anchor="middle" dominant-baseline="middle" font-family="Georgia, serif" fill="none" stroke="#000000" stroke-width="3" stroke-opacity="0.45">joe</text>
<text x="395.0" y="489.2" font-size="15" text-anchor="middle" dominant-baseline="middle" font-family="Georgia, serif" fill="#ffffff">joe</text>
<text x="605.0" y="489.2" font-size="15" text-anchor="middle" dominant-baseline="middle" font-family="Georgia, serif" fill="none" stroke="#000000" stroke-width="3" stroke-opacity="0.45">death</text>
<text x="605.0" y="489.2" font-size="15" text-anchor="middle" dominant-baseline="middle" font-family="Georgia, serif" fill="#ffffff">death</text>
<text x="815.0" y="489.2" font-size="15" text-anchor="middle" dominant-baseline="middle" font-family="Georgia, serif" fill="none" stroke="#000000" stroke-width="3" stroke-opacity="0.45">dies</text>
<text x="815.0" y="489.2" font-size="15" text-anchor="middle" dominant-baseline="middle" font-family="Georgia, serif" fill="#ffffff">dies</text>
<text x="140.0" y="532.3" font-size="15" text-anchor="middle" dominant-baseline="middle" font-family="Georgia, serif" fill="none" stroke="#000000" stroke-width="3" stroke-opacity="0.45">he</text>
<text x="140.0" y="532.3" font-size="15" text-anchor="middle" dominant-baseline="middle" font-family="Georgia, serif" fill="#ffffff">he</text>
<text x="260.0" y="532.3" font-size="15" text-anchor="middle" dominant-baseline="middle" font-family="Georgia, serif" fill="none" stroke="#000000" stroke-width="3" stroke-opacity="0.45">falls</text>
<text x="260.0" y="532.3" font-size="15" text-anchor="middle" dominant-baseline="middle" font-family="Georgia, serif" fill="#ffffff">falls</text>
<text x="380.0" y="532.3" font-size="15" text-anchor="middle" dominant-baseline="middle" font-family="Georgia, serif" fill="none" stroke="#000000" stroke-width="3" stroke-opacity="0.45">onto</text>
<text x="380.0" y="532.3" font-size="15" text-anchor="middle" dominant-baseline="middle" font-family="Georgia, serif" fill="#ffffff">onto</text>
<text x="500.0" y="532.3" font-size="15" text-anchor="middle" dominant-baseline="middle" font-family="Georgia, serif" fill="none" stroke="#000000" stroke-width="3" stroke-opacity="0.45">the</text>
<text x="500.0" y="532.3" font-size="15" text-anchor="middle" dominant-baseline="middle" font-family="Georgia, serif" fill="#ffffff">the</text>
<text x="620.0" y="532.3" font-size="15" text-anchor="middle" dominant-baseline="middle" font-family="Georgia, serif" fill="none" stroke="#000000" stroke-width="3" stroke-opacity="0.45">round</text>
<text x="620.0" y="532.3" font-size="15" text-anchor="middle" dominant-baseline="middle" font-family="Georgia, serif" fill="#ffffff">round</text>
<text x="740.0" y="532.3" font-size="15" text-anchor="middle" dominant-baseline="middle" font-family="Georgia, serif" fill="none" stroke="#000000" stroke-width="3" stroke-opacity="0.45">persian</text>
<text x="740.0" y="532.3" font-size="15" text-anchor="middle" dominant-baseline="middle" font-family="Georgia, serif" fill="#ffffff">persian</text>
<text x="860.0" y="532.3" font-size="15" text-anchor="middle" dominant-baseline="middle" font-family="Georgia, serif" fill="none" stroke="#000000" stroke-width="3" stroke-opacity="0.45">mat</text>
<text x="860.0" y="532.3" font-size="15" text-anchor="middle" dominant-baseline="middle" font-family="Georgia, serif" fill="#ffffff">mat</text>
<text x="140.0" y="575.4" font-size="15" text-anchor="middle" dominant-baseline="middle" font-family="Georgia, serif" fill="none" stroke="#000000" stroke-width="3" stroke-opacity="0.45">and</text>
<text x="140.0" y="575.4" font-size="15" text-anchor="middle" dominant-baseline="middle" font-family="Georgia, serif" fill="#ffffff">and</text>
<text x="260.0" y="575.4" font-size="15" text-anchor="middle" dominant-baseline="middle" font-family="Georgia, serif" fill="none" stroke="#000000" stroke-width="3" stroke-opacity="0.45">swings</text>
<text x="260.0" y="575.4" font-size="15" text-anchor="middle" dominant-baseline="middle" font-family="Georgia, serif" fill="#ffffff">swings</text>
<text x="380.0" y="575.4" font-size="15" text-anchor="middle" dominant-baseline="middle" font-family="Georgia, serif" fill="none" stroke="#000000" stroke-width="3" stroke-opacity="0.45">the</text>
<text x="380.0" y="575.4" font-size="15" text-anchor="middle" dominant-baseline="middle" font-family="Georgia, serif" fill="#ffffff">the</text>
<text x="500.0" y="575.4" font-size="15" text-anchor="middle" dominant-baseline="middle" font-family="Georgia, serif" fill="none" stroke="#000000" stroke-width="3" stroke-opacity="0.45">needle</text>
<text x="500.0" y="575.4" font-size="15" text-anchor="middle" dominant-baseline="middle" font-family="Georgia, serif" fill="#ffffff">needle</text>
<text x="620.0" y="575.4" font-size="15" text-anchor="middle" dominant-baseline="middle" font-family="Georgia, serif" fill="none" stroke="#000000" stroke-width="3" stroke-opacity="0.45">off</text>
<text x="620.0" y="575.4" font-size="15" text-anchor="middle" dominant-baseline="middle" font-family="Georgia, serif" fill="#ffffff">off</text>
<text x="740.0" y="575.4" font-size="15" text-anchor="middle" dominant-baseline="middle" font-family="Georgia, serif" fill="none" stroke="#000000" stroke-width="3" stroke-opacity="0.45">the</text>
<text x="740.0" y="575.4" font-size="15" text-anchor="middle" dominant-baseline="middle" font-family="Georgia, serif" fill="#ffffff">the</text>
<text x="860.0" y="575.4" font-size="15" text-anchor="middle" dominant-baseline="middle" font-family="Georgia, serif" fill="none" stroke="#000000" stroke-width="3" stroke-opacity="0.45">turntable</text>
<text x="860.0" y="575.4" font-size="15" text-anchor="middle" dominant-baseline="middle" font-family="Georgia, serif" fill="#ffffff">turntable</text>
<text x="290.0" y="618.5" font-size="15" text-anchor="middle" dominant-baseline="middle" font-family="Georgia, serif" fill="none" stroke="#000000" stroke-width="3" stroke-opacity="0.45">fahey</text>
<text x="290.0" y="618.5" font-size="15" text-anchor="middle" dominant-baseline="middle" font-family="Georgia, serif" fill="#ffffff">fahey</text>
<text x="710.0" y="618.5" font-size="15" text-anchor="middle" dominant-baseline="middle" font-family="Georgia, serif" fill="none" stroke="#000000" stroke-width="3" stroke-opacity="0.45">sleeps</text>
<text x="710.0" y="618.5" font-size="15" text-anchor="middle" dominant-baseline="middle" font-family="Georgia, serif" fill="#ffffff">sleeps</text></g></svg>